<svg width="54" height="54" viewBox="0 0 54 54" fill="none" xmlns="http://www.w3.org/2000/svg">
<path d="M30.7842 53.5366C30.1663 52.9187 30.1663 51.9171 30.7842 51.2993C44.1828 37.9006 44.1828 16.0994 30.7842 2.70073C30.1663 2.0829 30.1663 1.08126 30.7842 0.463423C31.402 -0.154413 32.4036 -0.154413 33.0215 0.463423C36.6034 4.04535 39.377 8.22255 41.2652 12.8789C43.0887 17.3755 44.0133 22.1266 44.0133 27.0001C44.0133 31.8735 43.0887 36.6245 41.2652 41.1213C39.377 45.7776 36.6034 49.9548 33.0215 53.5368C32.4038 54.1544 31.402 54.1544 30.7842 53.5366Z" fill="white"/>
<path d="M24.0062 46.7585C23.3883 46.1407 23.3883 45.139 24.0062 44.5212C33.6673 34.86 33.6673 19.14 24.0062 9.47888C23.3883 8.86105 23.3883 7.85941 24.0062 7.24158C24.624 6.62374 25.6256 6.62374 26.2435 7.24158C31.5211 12.5192 34.4276 19.5363 34.4277 27.0001C34.4277 34.4639 31.5211 41.4809 26.2435 46.7586C25.6256 47.3762 24.624 47.3762 24.0062 46.7585Z" fill="white"/>
<path d="M17.2281 39.9808C16.6103 39.3629 16.6103 38.3613 17.2281 37.7435C23.1519 31.8197 23.1519 22.1811 17.2281 16.2574C16.6103 15.6395 16.6103 14.6379 17.2281 14.0201C17.846 13.4022 18.8476 13.4022 19.4655 14.0201C26.6229 21.1775 26.6229 32.8233 19.4655 39.9808C18.8477 40.5986 17.846 40.5986 17.2281 39.9808Z" fill="white"/>
<path d="M10.4498 33.2019C9.83199 32.5841 9.83199 31.5824 10.4498 30.9646C12.6361 28.7783 12.6361 25.221 10.4498 23.0347C9.83199 22.4169 9.83199 21.4152 10.4498 20.7974C11.0677 20.1796 12.0693 20.1796 12.6871 20.7974C16.1071 24.2173 16.1071 29.782 12.6871 33.2019C12.0694 33.8197 11.0677 33.8197 10.4498 33.2019Z" fill="white"/>
</svg>
