<svg width="36" height="37" viewBox="0 0 36 37" fill="none" xmlns="http://www.w3.org/2000/svg">
<g opacity="0.25" clip-path="url(#clip0_2_24188)" filter="url(#filter0_d_2_24188)">
<path d="M14.75 6.16667V8.12167C13.5741 7.65417 12.3133 7.41334 11.0525 7.41334C8.51664 7.41334 5.98081 8.37667 4.03998 10.3175L8.75748 15.035H10.33V16.6075C11.5483 17.8258 13.135 18.4633 14.7358 18.5342V21.75H10.5V26C10.5 27.5583 11.775 28.8333 13.3333 28.8333H27.5C29.8516 28.8333 31.75 26.935 31.75 24.5833V6.16667H14.75ZM13.1775 15.2475V12.2017H9.94748L8.47414 10.7283C9.28164 10.4167 10.16 10.2467 11.0525 10.2467C12.9508 10.2467 14.7216 10.9833 16.0675 12.315L18.065 14.3125L17.7816 14.5958C17.0591 15.3183 16.0958 15.7292 15.0616 15.7292C14.3958 15.7292 13.7441 15.5592 13.1775 15.2475ZM28.9166 24.5833C28.9166 25.3625 28.2791 26 27.5 26C26.7208 26 26.0833 25.3625 26.0833 24.5833V21.75H17.5833V18.0808C18.3908 17.755 19.1416 17.2733 19.7933 16.6217L20.0766 16.3383L24.0858 20.3333H26.0833V18.3358L17.5833 9.87834V9.00001H28.9166V24.5833Z" fill="white"/>
</g>
<defs>
<filter id="filter0_d_2_24188" x="-2" y="0.5" width="42" height="42" filterUnits="userSpaceOnUse" color-interpolation-filters="sRGB">
<feFlood flood-opacity="0" result="BackgroundImageFix"/>
<feColorMatrix in="SourceAlpha" type="matrix" values="0 0 0 0 0 0 0 0 0 0 0 0 0 0 0 0 0 0 127 0" result="hardAlpha"/>
<feOffset dy="4"/>
<feGaussianBlur stdDeviation="2"/>
<feComposite in2="hardAlpha" operator="out"/>
<feColorMatrix type="matrix" values="0 0 0 0 0 0 0 0 0 0 0 0 0 0 0 0 0 0 0.25 0"/>
<feBlend mode="normal" in2="BackgroundImageFix" result="effect1_dropShadow_2_24188"/>
<feBlend mode="normal" in="SourceGraphic" in2="effect1_dropShadow_2_24188" result="shape"/>
</filter>
<clipPath id="clip0_2_24188">
<rect width="34" height="34" fill="white" transform="translate(2 0.5)"/>
</clipPath>
</defs>
</svg>
